<svg width="24" height="20" viewBox="0 0 24 20" fill="none" xmlns="http://www.w3.org/2000/svg">
<path d="M20.25 0.000244141C21.2446 0.000244141 22.1984 0.395332 22.9016 1.09859C23.6049 1.80186 24 2.75568 24 3.75024V15.7502C24 16.7448 23.6049 17.6986 22.9016 18.4019C22.1984 19.1052 21.2446 19.5002 20.25 19.5002H3.75C2.75544 19.5002 1.80161 19.1052 1.09835 18.4019C0.395088 17.6986 0 16.7448 0 15.7502V3.75024C0 2.75568 0.395088 1.80186 1.09835 1.09859C1.80161 0.395332 2.75544 0.000244141 3.75 0.000244141H20.25ZM22.5 5.94174L12.381 11.8967C12.2853 11.9529 12.1784 11.9872 12.0679 11.997C11.9574 12.0069 11.8461 11.9921 11.742 11.9537L11.619 11.8967L1.5 5.94474V15.7502C1.5 16.347 1.73705 16.9193 2.15901 17.3412C2.58097 17.7632 3.15326 18.0002 3.75 18.0002H20.25C20.8467 18.0002 21.419 17.7632 21.841 17.3412C22.2629 16.9193 22.5 16.347 22.5 15.7502V5.94174ZM20.25 1.50024H3.75C3.15326 1.50024 2.58097 1.7373 2.15901 2.15925C1.73705 2.58121 1.5 3.15351 1.5 3.75024V4.20324L12 10.3802L22.5 4.20024V3.75024C22.5 3.15351 22.2629 2.58121 21.841 2.15925C21.419 1.7373 20.8467 1.50024 20.25 1.50024Z" fill="#DAAB2D"/>
</svg>
