<svg width="33" height="33" viewBox="0 0 33 33" fill="none" xmlns="http://www.w3.org/2000/svg">
<path d="M27.0002 9.3335L5.3335 16.8335L12.8335 19.3335M27.0002 9.3335L12.8335 19.3335M27.0002 9.3335L20.3335 26.8335L12.8335 19.3335" stroke="#DAAB2D" stroke-width="2" stroke-linecap="round" stroke-linejoin="round"/>
<path d="M31.8276 9.85091V23.1842C31.8276 25.3944 30.9497 27.514 29.3869 29.0768C27.8241 30.6396 25.7044 31.5176 23.4943 31.5176H10.161C7.95083 31.5176 5.83122 30.6396 4.26841 29.0768C2.70561 27.514 1.82764 25.3944 1.82764 23.1842V9.85091C1.82764 7.64077 2.70561 5.52116 4.26841 3.95835C5.83122 2.39555 7.95083 1.51758 10.161 1.51758H23.4943C25.7044 1.51758 27.8241 2.39555 29.3869 3.95835C30.9497 5.52116 31.8276 7.64077 31.8276 9.85091Z" stroke="#DAAB2D" stroke-width="2" stroke-linecap="round" stroke-linejoin="round"/>
</svg>
