<svg width="32" height="32" viewBox="0 0 32 32" fill="none" xmlns="http://www.w3.org/2000/svg">
<path d="M31 9.33333V22.6667C31 24.8768 30.122 26.9964 28.5592 28.5592C26.9964 30.122 24.8768 31 22.6667 31H9.33333C7.1232 31 5.00358 30.122 3.44078 28.5592C1.87797 26.9964 1 24.8768 1 22.6667V9.33333C1 7.1232 1.87797 5.00358 3.44078 3.44078C5.00358 1.87797 7.1232 1 9.33333 1H22.6667C24.8768 1 26.9964 1.87797 28.5592 3.44078C30.122 5.00358 31 7.1232 31 9.33333Z" stroke="#DAAB2D" stroke-width="2" stroke-linecap="round" stroke-linejoin="round"/>
<path d="M7.6665 24.3332V12.6665" stroke="#DAAB2D" stroke-width="2" stroke-linecap="round" stroke-linejoin="round"/>
<path d="M14.3335 18.9165C14.3335 12.6665 24.3335 12.6665 24.3335 18.9165V24.3332M14.3335 24.3332V18.9165V24.3332ZM14.3335 12.6665V18.9165V12.6665Z" stroke="#DAAB2D" stroke-width="2" stroke-linecap="round" stroke-linejoin="round"/>
<path d="M7.6665 7.68337L7.68317 7.66504" stroke="#DAAB2D" stroke-width="2" stroke-linecap="round" stroke-linejoin="round"/>
</svg>
