<svg width="25" height="24" viewBox="0 0 25 24" fill="none" xmlns="http://www.w3.org/2000/svg">
<path d="M19.2568 23.6111C19.0233 23.6104 18.7904 23.5848 18.5623 23.5347C14.2197 22.6363 10.219 20.5301 7.02068 17.4583C3.89059 14.3797 1.71971 10.4601 0.770684 6.17356C0.658782 5.63933 0.686247 5.0853 0.850437 4.56475C1.01463 4.04421 1.31002 3.57468 1.70818 3.20134L4.48596 0.52773C4.62784 0.393554 4.79642 0.290806 4.9807 0.226189C5.16497 0.161573 5.3608 0.136542 5.55541 0.15273C5.75719 0.17378 5.95191 0.23878 6.12587 0.343159C6.29983 0.447538 6.44882 0.588761 6.56235 0.756896L10.0346 5.88884C10.1648 6.08797 10.2276 6.32363 10.2139 6.56116C10.2001 6.79868 10.1105 7.02552 9.95818 7.20828L8.21513 9.29162C8.90933 10.828 9.89245 12.2167 11.111 13.3819C12.3216 14.5894 13.7525 15.5536 15.3262 16.2222L17.486 14.5069C17.6674 14.3635 17.8881 14.2788 18.1188 14.2639C18.3495 14.249 18.5793 14.3047 18.7776 14.4236L24.0207 17.8125C24.2006 17.9199 24.3539 18.0666 24.469 18.2417C24.5842 18.4168 24.6583 18.6157 24.6856 18.8234C24.713 19.0312 24.6931 19.2424 24.6272 19.4414C24.5614 19.6403 24.4513 19.8218 24.3054 19.9722L21.5971 22.6527C21.2894 22.9589 20.9243 23.2011 20.5226 23.3656C20.121 23.5301 19.6908 23.6135 19.2568 23.6111ZM5.44429 1.52773L2.66652 4.20134C2.44253 4.41006 2.27672 4.67348 2.1854 4.9657C2.09408 5.25793 2.08039 5.56889 2.14568 5.86801C3.02813 9.89032 5.0566 13.571 7.98596 16.4652C10.9958 19.3552 14.7607 21.3363 18.8471 22.1805C19.1564 22.2452 19.4769 22.2321 19.7799 22.1424C20.0829 22.0527 20.3589 21.8892 20.5832 21.6666L23.2915 18.9861L18.229 15.7152L15.9096 17.5625C15.8208 17.6327 15.7161 17.6802 15.6048 17.7008C15.4934 17.7214 15.3787 17.7144 15.2707 17.6805C13.3448 16.9709 11.5995 15.8445 10.1596 14.3819C8.67023 12.9911 7.51417 11.2819 6.77763 9.3819C6.74647 9.26687 6.74543 9.14576 6.77462 9.03022C6.80381 8.91468 6.86224 8.8086 6.94429 8.72217L8.81929 6.47912L5.44429 1.52773Z" fill="#DAAB2D"/>
</svg>
